#!OML:ASF E:\inclinewalkrobotboard\Project 1\Capture day 1\Session 1\subject1.ASF
:FULLY-SPECIFIED
:DEGREES
129
root 10.1216 17.2999 28.2744 -163.64 -1.36758 173.626
lowerback -3.77797 -2.68051 -1.73313
upperback 0.771854 -3.7848 4.53834
thorax 3.33959 -2.0354 5.4212
lowerneck -7.61584 -3.46214 0.0216916
upperneck 26.8268 -3.22456 1.18848
head 9.73957 -0.649755 0.195267
rclavicle 9.54166e-015 4.45278e-014
rhumerus -75.4209 -48.1523 -15.798
rradius 14.4936
rwrist 48.7568
rhand -8.33527 -37.5738
rfingers 7.12502
rthumb 17.5862 -66.7984
lclavicle 9.54166e-015 4.45278e-014
lhumerus -20.4202 -19.0393 93.5256
lradius 24.9825
lwrist -17.4642
lhand -22.0927 -23.742
lfingers 7.12502
lthumb 4.31923 6.194
rfemur -23.8219 6.32009 2.01713
rtibia 12.5223
rfoot -8.17227 -8.33965
rtoes -35.9726
lfemur -6.52927 -13.4913 -14.1685
ltibia 13.2429
lfoot -19.524 5.94991
ltoes -69.5222
130
root 10.2261 17.3325 28.1972 -163.54 -1.25815 172.932
lowerback -3.41679 -2.84665 -1.91387
upperback 0.853275 -4.01222 4.66656
thorax 3.26815 -2.15849 5.65722
lowerneck -7.85999 -3.21477 -0.531099
upperneck 26.9115 -2.77952 1.12339
head 9.82332 -0.514099 0.310073
rclavicle -2.38542e-015 1.92424e-013
rhumerus -73.1489 -48.1113 -17.1079
rradius 14.4751
rwrist 47.905
rhand -7.90266 -37.4732
rfingers 7.12502
rthumb 18.0025 -66.6601
lclavicle -2.38542e-015 1.92424e-013
lhumerus -20.4956 -18.3372 93.048
lradius 25.204
lwrist -17.2929
lhand -22.2989 -23.7212
lfingers 7.12502
lthumb 4.12012 6.21869
rfemur -23.5836 6.31448 1.69982
rtibia 12.5046
rfoot -8.39139 -8.27006
rtoes -36.4006
lfemur -6.73562 -13.1967 -14.4363
ltibia 13.0776
lfoot -19.4148 5.41338
ltoes -69.6437
131
root 10.3257 17.3613 28.1216 -163.59 -1.21895 172.227
lowerback -2.96848 -3.02069 -2.0983
upperback 1.01264 -4.2483 4.72495
thorax 3.2268 -2.28592 5.82563
lowerneck -7.89996 -2.96262 -1.00116
upperneck 26.7359 -2.34547 1.00217
head 9.76992 -0.391896 0.390723
rclavicle 4.77083e-015 -8.90555e-014
rhumerus -71.3679 -48.5002 -17.6474
rradius 14.3563
rwrist 47.9192
rhand -7.77205 -37.9083
rfingers 7.12502
rthumb 18.1282 -67.0835
lclavicle 4.77083e-015 -8.90555e-014
lhumerus -20.4491 -17.1887 92.3584
lradius 25.1962
lwrist -17.6603
lhand -22.9863 -23.6943
lfingers 7.12502
lthumb 3.4563 6.25747
rfemur -23.1444 6.41504 1.35109
rtibia 12.4088
rfoot -8.68727 -8.31487
rtoes -36.0139
lfemur -6.9007 -12.947 -14.7849
ltibia 13.0215
lfoot -19.3911 4.98607
ltoes -69.5965
132
root 10.4213 17.3886 28.0437 -163.616 -1.31024 171.553
lowerback -2.78817 -3.22333 -2.42481
upperback 1.25946 -4.53297 4.87185
thorax 3.45496 -2.45274 6.14926
lowerneck -7.71821 -2.73648 -1.34267
upperneck 26.1984 -1.93623 0.589082
head 9.53869 -0.312319 0.343561
rclavicle 1.82882e-014 -8.26944e-014
rhumerus -68.8002 -48.8261 -18.95
rradius 14.2118
rwrist 48.1719
rhand -8.16766 -38.3393
rfingers 7.12502
rthumb 17.7475 -67.5494
lclavicle 1.82882e-014 -8.26944e-014
lhumerus -20.1649 -15.4411 91.6133
lradius 24.9424
lwrist -18.4465
lhand -23.482 -23.6037
lfingers 7.12502
lthumb 2.97762 6.35523
rfemur -22.6101 6.56621 1.01838
rtibia 12.196
rfoot -8.97761 -8.53186
rtoes -35.1864
lfemur -7.20528 -12.7672 -15.1036
ltibia 12.9553
lfoot -19.2678 4.70471
ltoes -69.3592
133
root 10.5133 17.4159 27.9657 -163.466 -1.47935 171.081
lowerback -2.78449 -3.40359 -2.48785
upperback 1.39262 -4.79255 4.98657
thorax 3.64107 -2.5974 6.28331
lowerneck -7.4911 -2.55847 -1.66418
upperneck 25.7578 -1.59892 0.250074
head 9.33745 -0.242524 0.313327
rclavicle 2.8625e-014 -6.67916e-014
rhumerus -66.6078 -49.2204 -19.947
rradius 14.0186
rwrist 49.3985
rhand -8.9662 -38.5232
rfingers 7.12502
rthumb 16.979 -67.8011
lclavicle 2.8625e-014 -6.67916e-014
lhumerus -20.1417 -13.5396 90.7851
lradius 24.6965
lwrist -19.0229
lhand -23.7059 -23.4514
lfingers 7.12502
lthumb 2.76139 6.51044
rfemur -22.2642 6.67371 0.883943
rtibia 12.0277
rfoot -9.26046 -8.77914
rtoes -34.6768
lfemur -7.83285 -12.6734 -15.1476
ltibia 12.9132
lfoot -19.1388 4.6855
ltoes -69.0348
134
root 10.6021 17.4428 27.8891 -163.247 -1.59602 170.788
lowerback -2.86518 -3.50248 -2.38969
upperback 1.47301 -4.9458 5.0747
thorax 3.79058 -2.68197 6.30131
lowerneck -7.088 -2.46901 -2.24471
upperneck 25.2709 -1.43306 0.285683
head 9.09692 -0.230524 0.439709
rclavicle -1.11319e-014 1.59028e-015
rhumerus -64.4848 -49.5979 -20.9752
rradius 13.8782
rwrist 50.5214
rhand -9.7278 -38.6275
rfingers 7.12502
rthumb 16.2458 -67.9669
lclavicle -1.11319e-014 1.59028e-015
lhumerus -20.3141 -11.5608 89.935
lradius 24.4397
lwrist -19.45
lhand -24.1553 -23.3709
lfingers 7.12502
lthumb 2.32741 6.59616
rfemur -22.0826 6.72252 0.927078
rtibia 11.9118
rfoot -9.55907 -8.8635
rtoes -34.2827
lfemur -8.61719 -12.5486 -14.9633
ltibia 12.9184
lfoot -19.156 4.85683
ltoes -68.6734
135
root 10.6853 17.4676 27.8132 -163.128 -1.67488 170.447
lowerback -2.86929 -3.52925 -2.37204
upperback 1.55002 -4.99057 5.09759
thorax 3.87987 -2.70946 6.30933
lowerneck -7.20793 -2.28724 -2.19803
upperneck 25.3031 -1.02492 -0.33432
head 9.12263 -0.0982485 0.259762
rclavicle 9.54166e-015 6.83819e-014
rhumerus -61.429 -49.3659 -23.3462
rradius 13.8985
rwrist 50.2245
rhand -10.4524 -38.9436
rfingers 7.12502
rthumb 15.548 -68.3386
lclavicle 9.54166e-015 6.83819e-014
lhumerus -20.5381 -10.0095 89.1708
lradius 24.2057
lwrist -19.3129
lhand -24.2509 -23.539
lfingers 7.12502
lthumb 2.23506 6.429
rfemur -21.8089 6.77168 0.905452
rtibia 11.8112
rfoot -9.87229 -8.8871
rtoes -33.587
lfemur -9.34235 -12.4693 -14.8705
ltibia 12.9317
lfoot -19.2671 4.99948
ltoes -68.2219
136
root 10.7628 17.4866 27.7396 -163.169 -1.69168 170.087
lowerback -2.70445 -3.48975 -2.44967
upperback 1.62787 -4.93578 5.06623
thorax 3.86449 -2.68507 6.33268
lowerneck -6.83128 -2.2282 -2.37299
upperneck 25.0192 -0.836107 -0.69439
head 8.9525 -0.0591068 0.186348
rclavicle -8.98507e-014 1.74931e-014
rhumerus -58.1551 -48.8402 -26.1227
rradius 14.0099
rwrist 49.2001
rhand -11.0226 -39.3519
rfingers 7.12502
rthumb 14.9987 -68.7887
lclavicle -8.98507e-014 1.74931e-014
lhumerus -20.912 -9.29703 88.5224
lradius 24.2623
lwrist -18.0358
lhand -23.4804 -23.7576
lfingers 7.12502
lthumb 2.97919 6.20138
rfemur -21.3425 6.77277 0.866776
rtibia 11.6446
rfoot -10.0956 -8.76366
rtoes -32.586
lfemur -9.91986 -12.3843 -14.8429
ltibia 12.8761
lfoot -19.425 5.05157
ltoes -67.8772
137
root 10.8366 17.501 27.6669 -163.314 -1.55598 169.813
lowerback -2.46503 -3.37204 -2.57226
upperback 1.71407 -4.77303 5.01275
thorax 3.80283 -2.60649 6.37061
lowerneck -6.87638 -2.12184 -2.23592
upperneck 25.0672 -0.567895 -1.18773
head 8.97373 0.0354208 0.0218136
rclavicle -4.92986e-014 -5.725e-014
rhumerus -55.2756 -48.4743 -28.4186
rradius 14.1111
rwrist 48.061
rhand -11.3257 -39.3784
rfingers 7.12502
rthumb 14.7067 -68.8367
lclavicle -4.92986e-014 -5.725e-014
lhumerus -21.564 -8.90519 87.889
lradius 24.0437
lwrist -17.7027
lhand -24.1023 -23.6815
lfingers 7.12502
lthumb 2.37858 6.28497
rfemur -20.8002 6.60698 0.942733
rtibia 11.366
rfoot -10.1278 -8.35038
rtoes -31.9965
lfemur -10.3292 -12.2905 -14.7483
ltibia 12.6675
lfoot -19.5324 5.24486
ltoes -67.634
138
root 10.9041 17.5114 27.5942 -163.439 -1.3811 169.609
lowerback -2.34134 -3.23008 -2.68944
upperback 1.79951 -4.57942 4.97263
thorax 3.802 -2.51399 6.41432
lowerneck -6.78324 -2.05329 -2.34692
upperneck 25.0485 -0.363468 -1.47924
head 8.95051 0.099828 -0.0373632
rclavicle -3.97569e-015 -1.90833e-014
rhumerus -52.5135 -48.2661 -30.4861
rradius 14.168
rwrist 46.7995
rhand -11.4864 -39.233
rfingers 7.12502
rthumb 14.5519 -68.7026
lclavicle -3.97569e-015 -1.90833e-014
lhumerus -22.3834 -8.47198 87.3256
lradius 24.0551
lwrist -17.4092
lhand -24.1756 -21.7802
lfingers 7.12502
lthumb 2.30774 8.18711
rfemur -20.3284 6.3699 1.09004
rtibia 11.1316
rfoot -10.1615 -7.86682
rtoes -31.722
lfemur -10.8175 -12.3053 -14.5677
ltibia 12.5235
lfoot -19.5562 5.53357
ltoes -67.2722
139
root 10.9665 17.5192 27.5248 -163.599 -1.13772 169.511
lowerback -2.23959 -2.98997 -2.71688
upperback 1.88786 -4.25429 4.89413
thorax 3.78788 -2.35158 6.37361
lowerneck -6.52911 -2.00137 -2.48491
upperneck 24.9763 -0.208832 -1.63798
head 8.87933 0.156823 -0.0507595
rclavicle -3.33958e-014 1.11319e-014
rhumerus -49.6418 -47.7502 -32.921
rradius 14.3355
rwrist 44.9113
rhand -11.4777 -39.1751
rfingers 7.12502
rthumb 14.5603 -68.6441
lclavicle -3.33958e-014 1.11319e-014
lhumerus -23.3019 -8.24717 86.7543
lradius 24.0459
lwrist -17.4267
lhand -24.0951 -21.0939
lfingers 7.12502
lthumb 2.38553 8.87246
rfemur -19.9004 6.41318 1.31079
rtibia 10.9859
rfoot -10.3118 -7.54477
rtoes -31.3917
lfemur -11.3938 -12.2179 -14.2641
ltibia 12.5463
lfoot -19.5882 5.70096
ltoes -66.9113
